<svg  data-name="First Floor" xmlns="http://www.w3.org/2000/svg" 
width="295" height="970" viewBox="0 0 295 970" id="floorImage">
<defs><style>.cls-1{fill:#0b1770;}.cls-2{fill:#84e6fe;}.cls-10,.cls-13,.cls-14,.cls-2,.cls-3,.cls-6,.cls-7,.cls-8{stroke:#242422;}.cls-10,.cls-13,.cls-14,.cls-2,.cls-21,.cls-3,.cls-5,.cls-6,.cls-7,.cls-8{stroke-miterlimit:10;}.cls-10,.cls-13,.cls-14,.cls-2,.cls-21,.cls-3,.cls-6,.cls-7,.cls-8{stroke-width:0.73873px;}.cls-22,.cls-3{fill:#e81223;}.cls-4,.cls-9{fill:#fff;}.cls-21,.cls-5{fill:none;stroke:#fff;}.cls-5{stroke-width:0.67323px;}.cls-6{fill:#2a3b90;}.cls-7{fill:#282561;}.cls-11,.cls-12,.cls-15,.cls-17,.cls-8{fill:#242422;}.cls-9{font-size:22.65442px;font-family:BebasNeue, Bebas Neue;letter-spacing:0.025em;}.cls-10{fill:#f5f5f5;}.cls-11{font-size:10.24374px;}.cls-11,.cls-12,.cls-15{font-family:Oswald-Bold, Oswald;font-weight:700;}.cls-12{font-size:8.96327px;}.cls-13{fill:#82f9d1;}.cls-14{fill:#19a284;}.cls-15{font-size:7.8798px;}.cls-16{letter-spacing:-0.02441em;}.cls-18{letter-spacing:-0.00582em;}.cls-19{letter-spacing:-0.00887em;}.cls-20{letter-spacing:-0.00143em;}</style></defs><title>mobile map</title><rect class="cls-1" x="-572.14599" y="140.9911" width="1080.65837" height="688.59576" transform="translate(453.47218 517.10579) rotate(90)"/><path class="cls-2" d="M132.31769,898.11829l30.20337-81.31952,21.44061-50.69788,69.24738-263.82745V373.22278H263.888V96.31824H253.47668A62.60816,62.60816,0,0,0,132.16956,74.54877l-.00434-.0008-.03692.10547c-.08081.21906-.15345.44184-.23188.662-27.66412,78.78192-40.56848,138.5473-40.56848,138.5473S78.128,265.29456,78.128,292.37708V533.42249l.42358,14.63421V720.85327L74.16412,755.743l-9.8684,25.44049H78.55157v17.17426H57.63385l-11.39624,29.3797L31.112,866.731l12.6,55.60791,36.96,13.944Z"/><circle class="cls-3" cx="140.54812" cy="284.81165" r="8.87646"/><rect class="cls-4" x="139.16574" y="283.42934" width="2.76475" height="5.95274"/><circle class="cls-4" cx="140.54812" cy="280.6213" r="1.38237"/><circle class="cls-3" cx="140.54812" cy="255.97735" r="8.87646"/><path class="cls-4" d="M147.16049,257.32337l-6.44434-3.04907v-.89757a.16808.16808,0,0,0-.168-.168,1.27115,1.27115,0,1,1,1.27114-1.27133h.33607a1.60712,1.60712,0,1,0-1.77525,1.59856v.73838l-6.44434,3.04907a.82963.82963,0,1,0,.70973,1.4998l5.90265-2.7925,5.90264,2.7925a.82963.82963,0,1,0,.70974-1.4998Z"/><circle class="cls-3" cx="92.65753" cy="789.7706" r="8.87646"/><path class="cls-4" d="M88.88683,785.90879a1.12411,1.12411,0,1,0-1.12411-1.12413A1.12412,1.12412,0,0,0,88.88683,785.90879Z"/><path class="cls-4" d="M90.64215,786.9905a.6539.6539,0,0,0-.65054-.5876H87.782a.6539.6539,0,0,0-.65054.5876l-.35773,3.50979a.65391.65391,0,0,0,.65054.72024h.21506l.58454,4.22168a.50808.50808,0,0,0,.50331.43841h.3192a.50808.50808,0,0,0,.50331-.43841l.58455-4.22168h.21507a.65393.65393,0,0,0,.65053-.72024Z"/><path class="cls-4" d="M98.54131,790.50029l-.35772-3.50979a.65391.65391,0,0,0-.65054-.5876H95.32347a.65392.65392,0,0,0-.65054.5876l-.35772,3.50979a.65413.65413,0,0,0,.50833.70463l-.26663,1.082a.44528.44528,0,0,0,.43235.55183h.41561l.36048,2.60346a.50808.50808,0,0,0,.50329.43841h.31922a.50809.50809,0,0,0,.50331-.43841l.36048-2.60346h.31061a.44527.44527,0,0,0,.43234-.55183l-.26386-1.07072A.65191.65191,0,0,0,98.54131,790.50029Z"/><path class="cls-4" d="M96.42825,785.90879a1.12411,1.12411,0,1,0-1.12411-1.12413A1.12413,1.12413,0,0,0,96.42825,785.90879Z"/><line class="cls-5" x1="92.64086" y1="795.88064" x2="92.64086" y2="783.66056"/><circle class="cls-6" cx="166.76331" cy="110.88454" r="8.87646"/><path class="cls-4" d="M162.9926,107.02273a1.12411,1.12411,0,1,0-1.12411-1.12414A1.12411,1.12411,0,0,0,162.9926,107.02273Z"/><path class="cls-4" d="M164.74793,108.10443a.65391.65391,0,0,0-.65054-.5876h-2.20957a.6539.6539,0,0,0-.65054.5876l-.35773,3.5098a.65392.65392,0,0,0,.65053.72024h.21507l.58453,4.22168a.50809.50809,0,0,0,.50331.43841h.31921a.50808.50808,0,0,0,.50331-.43841l.58455-4.22168h.21506a.65394.65394,0,0,0,.65054-.72024Z"/><path class="cls-4" d="M172.64709,111.61423l-.35772-3.5098a.65393.65393,0,0,0-.65054-.5876h-2.20958a.65391.65391,0,0,0-.65054.5876l-.35772,3.5098a.65411.65411,0,0,0,.50833.70462l-.26664,1.082a.44528.44528,0,0,0,.43236.55182h.41561l.36048,2.60347a.50808.50808,0,0,0,.50329.43841h.31922a.50809.50809,0,0,0,.50331-.43841l.36048-2.60347h.3106a.44527.44527,0,0,0,.43235-.55182l-.26386-1.07072A.65191.65191,0,0,0,172.64709,111.61423Z"/><path class="cls-4" d="M170.534,107.02273a1.12411,1.12411,0,1,0-1.12411-1.12414A1.12412,1.12412,0,0,0,170.534,107.02273Z"/><line class="cls-5" x1="166.74664" y1="116.99458" x2="166.74664" y2="104.77449"/><rect class="cls-7" x="89.7604" y="618.17107" width="3.84448" height="15.37791" transform="translate(717.54809 534.21448) rotate(90.0034)"/><rect class="cls-6" x="89.76017" y="622.01554" width="3.84448" height="15.37791" transform="translate(721.39234 538.05941) rotate(90.0034)"/><rect class="cls-7" x="89.75994" y="625.86002" width="3.84448" height="15.37791" transform="translate(725.23658 541.90434) rotate(90.0034)"/><rect class="cls-6" x="89.75971" y="629.7045" width="3.84448" height="15.37791" transform="translate(729.08083 545.74927) rotate(90.0034)"/><rect class="cls-7" x="89.75949" y="633.54897" width="3.84448" height="15.37791" transform="translate(732.92508 549.59421) rotate(90.0034)"/><rect class="cls-6" x="89.75926" y="637.39345" width="3.84448" height="15.37791" transform="translate(736.76933 553.43914) rotate(90.0034)"/><rect class="cls-7" x="89.75903" y="641.23793" width="3.84448" height="15.37791" transform="translate(740.61358 557.28407) rotate(90.0034)"/><rect class="cls-6" x="89.7588" y="645.0824" width="3.84448" height="15.37791" transform="translate(744.45783 561.129) rotate(90.0034)"/><rect class="cls-7" x="89.75857" y="648.92688" width="3.84448" height="15.37791" transform="translate(748.30208 564.97394) rotate(90.0034)"/><rect class="cls-8" x="95.52529" y="654.69394" width="3.84448" height="3.84448" transform="translate(-559.17442 754.02479) rotate(-89.9966)"/><rect class="cls-8" x="91.68104" y="650.84923" width="3.84448" height="3.84448" transform="translate(-559.17374 746.33606) rotate(-89.9966)"/><rect class="cls-8" x="87.83679" y="647.00453" width="3.84448" height="3.84448" transform="translate(-559.17305 738.64734) rotate(-89.9966)"/><rect class="cls-8" x="83.99254" y="643.15982" width="3.84448" height="3.84448" transform="translate(-559.17237 730.95861) rotate(-89.9966)"/><polygon class="cls-8" points="90.116 658.538 99.37 658.539 99.37 655.661 96.207 655.376 87.837 647.004 83.993 645.082 83.992 658.538 87.836 658.538 90.116 658.538"/><rect class="cls-7" x="170.84613" y="743.02769" width="3.84448" height="15.37791" transform="translate(88.82355 1516.46965) rotate(-160.78373)"/><rect class="cls-6" x="167.21586" y="741.76234" width="3.84448" height="15.37791" transform="translate(82.18175 1512.8146) rotate(-160.78373)"/><rect class="cls-7" x="163.58558" y="740.49699" width="3.84448" height="15.37791" transform="translate(75.53994 1509.15955) rotate(-160.78373)"/><rect class="cls-6" x="159.95531" y="739.23164" width="3.84448" height="15.37791" transform="translate(68.89813 1505.5045) rotate(-160.78373)"/><rect class="cls-7" x="156.32503" y="737.96629" width="3.84448" height="15.37791" transform="translate(62.25632 1501.84945) rotate(-160.78373)"/><rect class="cls-6" x="152.69476" y="736.70094" width="3.84448" height="15.37791" transform="translate(55.61451 1498.19439) rotate(-160.78373)"/><rect class="cls-7" x="149.06449" y="735.43558" width="3.84448" height="15.37791" transform="translate(48.97271 1494.53934) rotate(-160.78373)"/><rect class="cls-6" x="145.43421" y="734.17023" width="3.84448" height="15.37791" transform="translate(42.3309 1490.88429) rotate(-160.78373)"/><rect class="cls-7" x="141.80394" y="732.90488" width="3.84448" height="15.37791" transform="translate(35.68909 1487.22924) rotate(-160.78373)"/><rect class="cls-8" x="143.70197" y="733.22619" width="3.84448" height="3.84448" transform="translate(250.07674 -6.96968) rotate(19.21627)"/><rect class="cls-8" x="146.06689" y="738.12181" width="3.84448" height="3.84448" transform="translate(251.81983 -7.47529) rotate(19.21627)"/><rect class="cls-8" x="148.43181" y="743.01744" width="3.84448" height="3.84448" transform="translate(253.56292 -7.9809) rotate(19.21627)"/><rect class="cls-8" x="150.79673" y="747.91306" width="3.84448" height="3.84448" transform="matrix(0.94428, 0.32913, -0.32913, 0.94428, 255.30601, -8.48651)"/><polygon class="cls-8" points="141.396 741.439 144.442 732.701 147.159 733.648 146.387 736.728 151.537 747.387 152.086 751.65 139.38 747.221 140.646 743.591 141.396 741.439"/><rect class="cls-7" x="117.57891" y="166.39437" width="3.84448" height="15.37791" transform="translate(293.59155 54.5925) rotate(90.0034)"/><rect class="cls-6" x="117.57868" y="170.23885" width="3.84448" height="15.37791" transform="translate(297.4358 58.43743) rotate(90.0034)"/><rect class="cls-7" x="117.57845" y="174.08333" width="3.84448" height="15.37791" transform="translate(301.28005 62.28236) rotate(90.0034)"/><rect class="cls-6" x="117.57822" y="177.9278" width="3.84448" height="15.37791" transform="translate(305.1243 66.1273) rotate(90.0034)"/><rect class="cls-7" x="117.57799" y="181.77228" width="3.84448" height="15.37791" transform="translate(308.96855 69.97223) rotate(90.0034)"/><rect class="cls-6" x="117.57777" y="185.61676" width="3.84448" height="15.37791" transform="translate(312.8128 73.81716) rotate(90.0034)"/><rect class="cls-7" x="117.57754" y="189.46123" width="3.84448" height="15.37791" transform="translate(316.65704 77.66209) rotate(90.0034)"/><rect class="cls-6" x="117.57731" y="193.30571" width="3.84448" height="15.37791" transform="translate(320.50129 81.50702) rotate(90.0034)"/><rect class="cls-7" x="117.57708" y="197.15019" width="3.84448" height="15.37791" transform="translate(324.34554 85.35196) rotate(90.0034)"/><rect class="cls-8" x="123.3438" y="202.91724" width="3.84448" height="3.84448" transform="translate(-79.58087 330.09338) rotate(-89.9966)"/><rect class="cls-8" x="119.49955" y="199.07254" width="3.84448" height="3.84448" transform="translate(-79.58018 322.40465) rotate(-89.9966)"/><rect class="cls-8" x="115.6553" y="195.22783" width="3.84448" height="3.84448" transform="translate(-79.5795 314.71593) rotate(-89.9966)"/><rect class="cls-8" x="111.81105" y="191.38313" width="3.84448" height="3.84448" transform="translate(-79.57882 307.0272) rotate(-89.9966)"/><polygon class="cls-8" points="117.934 206.761 127.188 206.762 127.188 203.884 124.026 203.599 115.655 195.228 111.811 193.305 111.811 206.761 115.655 206.761 117.934 206.761"/><rect class="cls-7" x="97.37485" y="357.74632" width="3.84448" height="15.37791" transform="translate(464.73825 266.15985) rotate(90.0034)"/><rect class="cls-6" x="97.37462" y="361.5908" width="3.84448" height="15.37791" transform="translate(468.5825 270.00478) rotate(90.0034)"/><rect class="cls-7" x="97.37439" y="365.43528" width="3.84448" height="15.37791" transform="translate(472.42675 273.84971) rotate(90.0034)"/><rect class="cls-6" x="97.37417" y="369.27975" width="3.84448" height="15.37791" transform="translate(476.271 277.69464) rotate(90.0034)"/><rect class="cls-7" x="97.37394" y="373.12423" width="3.84448" height="15.37791" transform="translate(480.11524 281.53958) rotate(90.0034)"/><rect class="cls-6" x="97.37371" y="376.96871" width="3.84448" height="15.37791" transform="translate(483.95949 285.38451) rotate(90.0034)"/><rect class="cls-7" x="97.37348" y="380.81318" width="3.84448" height="15.37791" transform="translate(487.80374 289.22944) rotate(90.0034)"/><rect class="cls-6" x="97.37326" y="384.65766" width="3.84448" height="15.37791" transform="translate(491.64799 293.07437) rotate(90.0034)"/><rect class="cls-7" x="97.37303" y="388.50214" width="3.84448" height="15.37791" transform="translate(495.49224 296.9193) rotate(90.0034)"/><rect class="cls-8" x="103.13974" y="394.26919" width="3.84448" height="3.84448" transform="translate(-291.13568 501.22993) rotate(-89.9966)"/><rect class="cls-8" x="99.29549" y="390.42449" width="3.84448" height="3.84448" transform="translate(-291.13499 493.54121) rotate(-89.9966)"/><rect class="cls-8" x="95.45124" y="386.57978" width="3.84448" height="3.84448" transform="translate(-291.13431 485.85248) rotate(-89.9966)"/><rect class="cls-8" x="91.607" y="382.73508" width="3.84448" height="3.84448" transform="translate(-291.13363 478.16376) rotate(-89.9966)"/><polygon class="cls-8" points="97.73 398.113 106.984 398.114 106.984 395.236 103.822 394.951 95.451 386.58 91.607 384.657 91.607 398.113 95.451 398.113 97.73 398.113"/><rect class="cls-7" x="213.20912" y="613.54859" width="3.84448" height="15.37791" transform="translate(265.27168 1276.7553) rotate(-165.27331)"/><rect class="cls-6" x="209.49093" y="612.57129" width="3.84448" height="15.37791" transform="matrix(-0.96715, -0.25421, 0.25421, -0.96715, 258.20589, 1273.88762)"/><rect class="cls-7" x="205.77275" y="611.59399" width="3.84448" height="15.37791" transform="translate(251.14011 1271.01993) rotate(-165.27331)"/><rect class="cls-6" x="202.05457" y="610.61669" width="3.84448" height="15.37791" transform="translate(244.07432 1268.15224) rotate(-165.27331)"/><rect class="cls-7" x="198.33638" y="609.6394" width="3.84448" height="15.37791" transform="translate(237.00854 1265.28456) rotate(-165.27331)"/><rect class="cls-6" x="194.6182" y="608.6621" width="3.84448" height="15.37791" transform="translate(229.94275 1262.41687) rotate(-165.27331)"/><rect class="cls-7" x="190.90002" y="607.6848" width="3.84448" height="15.37791" transform="translate(222.87697 1259.54919) rotate(-165.27331)"/><rect class="cls-6" x="187.18183" y="606.7075" width="3.84448" height="15.37791" transform="translate(215.81118 1256.6815) rotate(-165.27331)"/><rect class="cls-7" x="183.46365" y="605.7302" width="3.84448" height="15.37791" transform="translate(208.7454 1253.81381) rotate(-165.27331)"/><rect class="cls-8" x="184.9296" y="605.91964" width="3.84448" height="3.84448" transform="translate(160.65675 -27.53138) rotate(14.72669)"/><rect class="cls-8" x="187.67048" y="610.61512" width="3.84448" height="3.84448" transform="matrix(0.96715, 0.25421, -0.25421, 0.96715, 161.94042, -28.07389)"/><rect class="cls-8" x="190.41137" y="615.3106" width="3.84448" height="3.84448" transform="translate(163.22409 -28.61639) rotate(14.72669)"/><rect class="cls-8" x="193.15225" y="620.00609" width="3.84448" height="3.84448" transform="matrix(0.96715, 0.25421, -0.25421, 0.96715, 164.50776, -29.1589)"/><polygon class="cls-8" points="183.129 614.444 185.481 605.494 188.265 606.226 187.736 609.357 193.704 619.581 194.586 623.787 181.572 620.366 182.549 616.649 183.129 614.444"/><rect class="cls-7" x="243.80995" y="478.08379" width="3.84448" height="15.37791" transform="matrix(-0.99125, -0.13198, 0.13198, -0.99125, 425.2034, 999.72757)"/><rect class="cls-6" x="239.99911" y="477.57641" width="3.84448" height="15.37791" transform="translate(417.682 998.21428) rotate(-172.41607)"/><rect class="cls-7" x="236.18826" y="477.06902" width="3.84448" height="15.37791" transform="translate(410.1606 996.701) rotate(-172.41607)"/><rect class="cls-6" x="232.37741" y="476.56163" width="3.84448" height="15.37791" transform="translate(402.63921 995.18771) rotate(-172.41607)"/><rect class="cls-7" x="228.56656" y="476.05424" width="3.84448" height="15.37791" transform="translate(395.11781 993.67442) rotate(-172.41607)"/><rect class="cls-6" x="224.75572" y="475.54686" width="3.84448" height="15.37791" transform="translate(387.59642 992.16114) rotate(-172.41607)"/><rect class="cls-7" x="220.94487" y="475.03947" width="3.84448" height="15.37791" transform="translate(380.07502 990.64785) rotate(-172.41607)"/><rect class="cls-6" x="217.13402" y="474.53208" width="3.84448" height="15.37791" transform="matrix(-0.99125, -0.13198, 0.13198, -0.99125, 372.55362, 989.13457)"/><rect class="cls-7" x="213.32317" y="474.02469" width="3.84448" height="15.37791" transform="translate(365.03223 987.62128) rotate(-172.41607)"/><rect class="cls-8" x="214.08425" y="474.07514" width="3.84448" height="3.84448" transform="translate(64.71083 -24.34444) rotate(7.58393)"/><rect class="cls-8" x="217.38771" y="478.39337" width="3.84448" height="3.84448" transform="translate(65.30964 -24.74265) rotate(7.58393)"/><rect class="cls-8" x="220.69117" y="482.71161" width="3.84448" height="3.84448" transform="translate(65.90845 -25.14086) rotate(7.58393)"/><rect class="cls-8" x="223.99463" y="487.02984" width="3.84448" height="3.84448" transform="translate(66.50726 -25.53907) rotate(7.58393)"/><polygon class="cls-8" points="213.133 483.011 214.355 473.838 217.208 474.218 217.072 477.391 224.265 486.793 225.663 490.858 212.325 489.081 212.833 485.271 213.133 483.011"/><text class="cls-9" transform="translate(225.242 681.26569) rotate(90)">GROUND FLOOR</text><text class="cls-9" transform="translate(48.72442 232.6319) rotate(90)">ENTRANCE</text><rect class="cls-10" x="100.15004" y="682.52793" width="32.76843" height="28.84226" transform="translate(820.2522 760.97466) rotate(104.69097)"/><text class="cls-11" transform="matrix(-0.25361, 0.96731, -0.96731, -0.25361, 113.42119, 691.16317)">U1</text><rect class="cls-10" x="123.84322" y="620.15445" width="15.94784" height="26.03056" transform="translate(-514.05492 599.56972) rotate(-75.2618)"/><rect class="cls-10" x="119.27899" y="637.50573" width="15.94784" height="26.03056" transform="translate(-534.23839 608.09273) rotate(-75.2618)"/><text class="cls-11" transform="translate(125.63659 636.18361) rotate(14.73802)">P2</text><text class="cls-11" transform="translate(122.01576 653.78495) rotate(14.73802)">P1</text><rect class="cls-10" x="148.23374" y="525.79018" width="32.76843" height="28.84226" transform="translate(728.92776 518.26195) rotate(104.72004)"/><text class="cls-11" transform="translate(161.77121 533.47197) rotate(104.72023)">U2</text><rect class="cls-10" x="145.98591" y="562.29754" width="15.94784" height="26.03056" transform="translate(-441.59054 578.18082) rotate(-75.29402)"/><rect class="cls-10" x="141.43036" y="579.6511" width="15.94784" height="26.03056" transform="translate(-461.7747 586.72271) rotate(-75.29402)"/><text class="cls-11" transform="matrix(0.96724, 0.25386, -0.25386, 0.96724, 147.67232, 578.24914)">P4</text><text class="cls-11" transform="matrix(0.96724, 0.25386, -0.25386, 0.96724, 143.15078, 595.61147)">P3</text><rect class="cls-10" x="166.88798" y="479.70053" width="13.41131" height="20.76315" transform="translate(691.6824 446.50172) rotate(104.69656)"/><rect class="cls-10" x="160.09116" y="496.8302" width="13.41131" height="14.79062" transform="translate(-363.24827 537.64327) rotate(-75.30344)"/><text class="cls-12" transform="translate(162.11708 507.1592) rotate(14.69661)">S1</text><rect class="cls-10" x="187.92484" y="488.20437" width="13.41131" height="14.79062" transform="translate(-334.13237 558.12886) rotate(-75.30344)"/><text class="cls-12" transform="translate(189.11896 498.31602) rotate(14.69661)">S2</text><text class="cls-11" transform="translate(166.76054 492.94449) rotate(14.69661)">G5</text><rect class="cls-10" x="181.12802" y="499.3615" width="13.41131" height="20.76315" transform="translate(728.55287 457.37652) rotate(104.69656)"/><text class="cls-11" transform="translate(181.01778 512.60919) rotate(14.69661)">G4</text><rect class="cls-10" x="159.13383" y="626.88796" width="13.18883" height="20.76315" transform="translate(163.7256 1295.73313) rotate(-165.24831)"/><text class="cls-11" transform="translate(162.9251 630.52323) rotate(104.75164)">G3</text><rect class="cls-10" x="153.19371" y="649.44741" width="13.18883" height="20.76315" transform="matrix(-0.96704, -0.25463, 0.25463, -0.96704, 146.29683, 1338.59591)"/><text class="cls-11" transform="translate(156.9679 653.14763) rotate(104.75164)">G2</text><rect class="cls-10" x="147.25359" y="672.00687" width="13.18883" height="20.76315" transform="translate(128.86806 1381.45868) rotate(-165.24831)"/><text class="cls-11" transform="translate(150.77894 676.65218) rotate(104.75164)">G1</text><rect class="cls-13" x="151.03832" y="232.46659" width="127.43187" height="90.22428" transform="translate(492.33299 62.82447) rotate(90)"/><text class="cls-11" transform="translate(196.16238 274.48346)">ROOM 9<tspan x="-0.84863" y="12.29248">(LOWER)</tspan></text><polygon class="cls-13" points="128.983 895.609 143.335 856.967 52.613 822.362 35.283 867.039 47.138 919.356 80.046 931.772 128.983 895.609"/><text class="cls-11" transform="translate(68.2667 882.92633)">ROOM 1</text><rect class="cls-14" x="188.54581" y="569.12141" width="49.99228" height="26.64018" transform="translate(831.12941 523.92655) rotate(104.72209)"/><text class="cls-15" transform="translate(214.39826 566.4648) rotate(104.72204)">C<tspan class="cls-16" x="4.5166" y="0">A</tspan><tspan x="8.62207" y="0">TERING</tspan></text><rect class="cls-14" x="155.03001" y="697.08332" width="49.99228" height="26.64018" transform="matrix(-0.25413, 0.96717, -0.96717, -0.25413, 912.8571, 716.82301)"/><text class="cls-15" transform="translate(180.88264 694.42534) rotate(104.72204)">C<tspan class="cls-16" x="4.5166" y="0">A</tspan><tspan x="8.62207" y="0">TERING</tspan></text><rect class="cls-14" x="202.62111" y="515.58066" width="49.99228" height="26.64018" transform="translate(796.99868 443.16622) rotate(104.72209)"/><text class="cls-15" transform="translate(228.47444 512.92477) rotate(104.72204)">C<tspan class="cls-16" x="4.5166" y="0">A</tspan><tspan x="8.62207" y="0">TERING</tspan></text><polygon class="cls-4" points="73.918 270.472 69.999 268.21 69.999 272.734 73.918 270.472"/><polygon class="cls-4" points="73.918 294.395 69.999 292.133 69.999 296.657 73.918 294.395"/><polygon class="cls-4" points="73.918 246.55 69.999 244.287 69.999 248.812 73.918 246.55"/><rect class="cls-14" x="70.45546" y="467.90978" width="49.99228" height="26.64018" transform="translate(576.69857 385.86454) rotate(90.01027)"/><text class="cls-15" transform="translate(92.20892 465.55002) rotate(90.01031)">C<tspan class="cls-16" x="4.5166" y="0">A</tspan><tspan x="8.62207" y="0">TERING</tspan></text><polygon class="cls-17" points="165.784 216.125 161.866 213.863 161.866 218.387 165.784 216.125"/><polygon class="cls-17" points="165.784 223.25 161.866 220.988 161.866 225.512 165.784 223.25"/><polygon class="cls-17" points="165.784 230.376 161.866 228.114 161.866 232.638 165.784 230.376"/><rect class="cls-14" x="77.89968" y="329.06599" width="44.16035" height="16.73512" transform="translate(437.3877 237.36697) rotate(89.98527)"/><text class="cls-11" transform="translate(95.62117 329.00459) rotate(89.9851)">BAR</text><text class="cls-11" transform="translate(144.13848 167.0329) rotate(90)"><tspan class="cls-18">A</tspan><tspan x="5.52734" y="0">CCESS </tspan><tspan class="cls-19" x="34.2627" y="0">T</tspan><tspan x="38.74902" y="0">O</tspan><tspan x="4.27832" y="12.29248">ROOM 10</tspan></text><text class="cls-11" transform="translate(171.06631 439.11579)"><tspan class="cls-20">W</tspan><tspan x="7.30762" y="0">ORK AREA</tspan></text><circle class="cls-3" cx="195.07449" cy="408.5414" r="14.36698"/><rect class="cls-21" x="186.7447" y="401.01402" width="16.65959" height="10.39314" rx="2.00573"/><rect class="cls-4" x="188.13298" y="402.40247" width="13.88302" height="7.61622" rx="0.73076"/><rect class="cls-21" x="186.7447" y="413.86215" width="16.65959" height="3.51667"/><line class="cls-21" x1="188.13298" y1="415.62048" x2="202.016" y2="415.62048"/><polygon class="cls-22" points="192.765 410.019 195.213 410.019 198.867 402.402 196.419 402.402 192.765 410.019"/><path class="cls-4" d="M201.27715,403.1413l.00806,6.13867-12.41357.00794-.00782-6.14661h12.41333m.00806-.73877H188.86382a.73091.73091,0,0,0-.731.73071v6.15467a.731.731,0,0,0,.731.73083h12.42139a.73081.73081,0,0,0,.73071-.73083v-6.15467a.7307.7307,0,0,0-.73071-.73071Z"/></svg>