<svg id="floorImage" data-name="Second floor" xmlns="http://www.w3.org/2000/svg" xmlns:xlink="http://www.w3.org/1999/xlink" width="295" height="970" viewBox="0 0 295 970"><defs><style>.cls-1,.cls-20,.cls-22,.cls-8{fill:none;}.cls-2{fill:#0b1770;}.cls-3{fill:#84e6fe;}.cls-4{fill:#19a284;}.cls-10,.cls-11,.cls-12,.cls-14,.cls-22,.cls-4,.cls-6,.cls-9{stroke:#242422;stroke-width:0.73873px;}.cls-10,.cls-11,.cls-12,.cls-14,.cls-20,.cls-22,.cls-4,.cls-6,.cls-8,.cls-9{stroke-miterlimit:10;}.cls-5{font-size:10.24374px;}.cls-12,.cls-15,.cls-16,.cls-18,.cls-5{fill:#242422;}.cls-15,.cls-16,.cls-5{font-family:Oswald-Bold, Oswald;font-weight:700;}.cls-6{fill:#e81223;}.cls-13,.cls-7{fill:#fff;}.cls-8{stroke:#fff;stroke-width:0.67323px;}.cls-9{fill:#82f9d1;}.cls-10{fill:#282561;}.cls-11{fill:#2a3b90;}.cls-13{font-size:22.65442px;font-family:BebasNeue, Bebas Neue;letter-spacing:0.025em;}.cls-14{fill:#f5f5f5;}.cls-15{font-size:8.96327px;}.cls-16{font-size:7.8798px;}.cls-17{letter-spacing:-0.02441em;}.cls-19{clip-path:url(#clip-path);}.cls-20{stroke:#63cce6;stroke-width:6px;}.cls-21{letter-spacing:-0.00591em;}</style><clipPath id="clip-path"><rect class="cls-1" x="62.21625" y="213.86279" width="105.91424" height="98.39996"/></clipPath></defs><title>mobile map</title><rect class="cls-2" x="-220.62557" y="140.9911" width="1080.65837" height="688.59576" transform="translate(804.9926 165.58536) rotate(90)"/><path class="cls-3" d="M130.80609,898.11829l28.81055-77.56989.002.00073,3.75043,1.39081,1.39075-3.75043L182.7677,769.629l1.39081-3.75043-3.664-1.35876,7.46991-18.80231.26239.08386,3.81,1.218,1.21808-3.81,15.77137-49.33221.7489-2.34265.21777-.68116,15.77136-49.33227,1.218-3.81-3.81-1.21808-6.81573-2.17895,6.07416-23.189,7.37768,1.51508,3.91821.80462.80463-3.91827,10.4184-50.73322.80462-3.91827,10.25232-49.92468.80463-3.91822-3.91821-.80462-4.43091-.90991,3.32-25.11444,6.60108.334,3.99487.20215.20215-3.99487,2.61743-51.72583.20209-3.99488-3.99487-.20215-9.7074-.49121v-41.1076h10.67883V96.31824H251.965A62.60816,62.60816,0,0,0,130.6579,74.54877l-.0044-.0008-.03686.10547c-.08081.21906-.15344.44184-.23194.662-27.66406,78.78192-40.56835,138.5473-40.56835,138.5473H62.21625v98.4h14.4V435.35205l-2.78393-.56659-3.91968-.79773-.79773,3.91968-11.68933,57.436-.79773,3.91962,3.91962.79773,16.06878,3.27032v25.44111l-13.48938-2.74537L51.924,581.07245,77.04,586.184V777.99078l-7.177-.06646L67.85,835.44269l-23.12415-7.70526L29.60028,866.731l12.6001,55.60791,36.96,13.944Z"/><rect class="cls-4" x="92.1799" y="425.31804" width="44.16035" height="16.73512" transform="translate(89.31479 -14.10486) rotate(11.5714)"/><text class="cls-5" transform="matrix(0.97968, 0.20059, -0.20059, 0.97968, 105.05798, 436.25847)">BAR</text><circle class="cls-6" cx="67.46073" cy="568.10746" r="8.87646"/><path class="cls-7" d="M63.69,564.24565a1.12411,1.12411,0,1,0-1.12411-1.12414A1.12411,1.12411,0,0,0,63.69,564.24565Z"/><path class="cls-7" d="M65.44534,565.32735a.6539.6539,0,0,0-.65053-.5876H62.58524a.6539.6539,0,0,0-.65054.5876l-.35774,3.5098a.65393.65393,0,0,0,.65054.72024h.21507l.58453,4.22168a.50809.50809,0,0,0,.50331.43841h.31921a.50808.50808,0,0,0,.50331-.43841l.58454-4.22168h.21507a.65394.65394,0,0,0,.65054-.72024Z"/><path class="cls-7" d="M73.34451,568.83715l-.35772-3.5098a.65393.65393,0,0,0-.65054-.5876H70.12667a.65391.65391,0,0,0-.65054.5876l-.35772,3.5098a.65411.65411,0,0,0,.50833.70462l-.26664,1.082a.44528.44528,0,0,0,.43236.55182h.41561l.36047,2.60347a.50809.50809,0,0,0,.5033.43841h.31922a.50809.50809,0,0,0,.50331-.43841l.36048-2.60347h.3106a.44527.44527,0,0,0,.43235-.55182l-.26386-1.07072A.65192.65192,0,0,0,73.34451,568.83715Z"/><path class="cls-7" d="M71.23145,564.24565a1.12411,1.12411,0,1,0-1.12411-1.12414A1.12412,1.12412,0,0,0,71.23145,564.24565Z"/><line class="cls-8" x1="67.44406" y1="574.2175" x2="67.44406" y2="561.99741"/><circle class="cls-6" cx="231.86829" cy="374.63978" r="8.87646"/><path class="cls-7" d="M228.09758,370.778a1.12411,1.12411,0,1,0-1.12411-1.12414A1.12412,1.12412,0,0,0,228.09758,370.778Z"/><path class="cls-7" d="M229.85291,371.85968a.65391.65391,0,0,0-.65054-.5876H226.9928a.6539.6539,0,0,0-.65054.5876l-.35773,3.50979a.65391.65391,0,0,0,.65053.72024h.21507l.58453,4.22168a.50809.50809,0,0,0,.50331.43842h.31921a.50808.50808,0,0,0,.50331-.43842l.58455-4.22168h.21507a.65393.65393,0,0,0,.65053-.72024Z"/><path class="cls-7" d="M237.75207,375.36947l-.35772-3.50979a.65393.65393,0,0,0-.65054-.5876h-2.20958a.65391.65391,0,0,0-.65054.5876l-.35772,3.50979a.65412.65412,0,0,0,.50833.70463l-.26664,1.082a.44528.44528,0,0,0,.43236.55182h.41561l.36048,2.60346a.50808.50808,0,0,0,.50329.43842h.31922a.50809.50809,0,0,0,.50331-.43842l.36048-2.60346h.3106a.44527.44527,0,0,0,.43235-.55182l-.26386-1.07072A.65193.65193,0,0,0,237.75207,375.36947Z"/><path class="cls-7" d="M235.639,370.778a1.12411,1.12411,0,1,0-1.12411-1.12414A1.12414,1.12414,0,0,0,235.639,370.778Z"/><line class="cls-8" x1="231.85162" y1="380.74983" x2="231.85162" y2="368.52974"/><rect class="cls-9" x="67.99978" y="442.81849" width="58.61337" height="61.46792" transform="translate(580.75207 472.64219) rotate(101.50374)"/><rect class="cls-9" x="159.59103" y="625.82519" width="51.79197" height="60.01318" transform="translate(866.65534 678.86347) rotate(107.72889)"/><rect class="cls-9" x="142.853" y="678.18119" width="51.79197" height="60.01318" transform="translate(894.68988 763.10568) rotate(107.72889)"/><rect class="cls-10" x="169.33448" y="743.02769" width="3.84448" height="15.37791" transform="translate(85.88447 1515.97211) rotate(-160.78373)"/><rect class="cls-11" x="165.7042" y="741.76234" width="3.84448" height="15.37791" transform="translate(79.24266 1512.31706) rotate(-160.78373)"/><rect class="cls-10" x="162.07393" y="740.49699" width="3.84448" height="15.37791" transform="translate(72.60086 1508.66201) rotate(-160.78373)"/><rect class="cls-11" x="158.44365" y="739.23164" width="3.84448" height="15.37791" transform="translate(65.95905 1505.00696) rotate(-160.78373)"/><rect class="cls-10" x="154.81338" y="737.96629" width="3.84448" height="15.37791" transform="translate(59.31724 1501.35191) rotate(-160.78373)"/><rect class="cls-11" x="151.18311" y="736.70094" width="3.84448" height="15.37791" transform="translate(52.67543 1497.69686) rotate(-160.78373)"/><rect class="cls-10" x="147.55283" y="735.43558" width="3.84448" height="15.37791" transform="translate(46.03362 1494.04181) rotate(-160.78373)"/><rect class="cls-11" x="143.92256" y="734.17023" width="3.84448" height="15.37791" transform="translate(39.39182 1490.38675) rotate(-160.78373)"/><rect class="cls-10" x="140.29229" y="732.90488" width="3.84448" height="15.37791" transform="translate(32.75001 1486.7317) rotate(-160.78373)"/><rect class="cls-12" x="142.19031" y="733.22619" width="3.84448" height="3.84448" transform="translate(249.99252 -6.47214) rotate(19.21627)"/><rect class="cls-12" x="144.55523" y="738.12181" width="3.84448" height="3.84448" transform="translate(251.73561 -6.97775) rotate(19.21627)"/><rect class="cls-12" x="146.92016" y="743.01744" width="3.84448" height="3.84448" transform="translate(253.47869 -7.48336) rotate(19.21627)"/><rect class="cls-12" x="149.28508" y="747.91306" width="3.84448" height="3.84448" transform="translate(255.22178 -7.98897) rotate(19.21627)"/><polygon class="cls-12" points="139.884 741.439 142.93 732.701 145.648 733.648 144.876 736.728 150.025 747.387 150.575 751.65 137.869 747.221 139.134 743.591 139.884 741.439"/><rect class="cls-10" x="116.06725" y="166.39437" width="3.84448" height="15.37791" transform="translate(292.07981 56.10415) rotate(90.0034)"/><rect class="cls-11" x="116.06702" y="170.23885" width="3.84448" height="15.37791" transform="translate(295.92406 59.94908) rotate(90.0034)"/><rect class="cls-10" x="116.0668" y="174.08333" width="3.84448" height="15.37791" transform="translate(299.76831 63.79402) rotate(90.0034)"/><rect class="cls-11" x="116.06657" y="177.9278" width="3.84448" height="15.37791" transform="translate(303.61255 67.63895) rotate(90.0034)"/><rect class="cls-10" x="116.06634" y="181.77228" width="3.84448" height="15.37791" transform="translate(307.4568 71.48388) rotate(90.0034)"/><rect class="cls-11" x="116.06611" y="185.61676" width="3.84448" height="15.37791" transform="translate(311.30105 75.32881) rotate(90.0034)"/><rect class="cls-10" x="116.06588" y="189.46123" width="3.84448" height="15.37791" transform="translate(315.1453 79.17375) rotate(90.0034)"/><rect class="cls-11" x="116.06566" y="193.30571" width="3.84448" height="15.37791" transform="translate(318.98955 83.01868) rotate(90.0034)"/><rect class="cls-10" x="116.06543" y="197.15019" width="3.84448" height="15.37791" transform="translate(322.8338 86.86361) rotate(90.0034)"/><rect class="cls-12" x="121.83214" y="202.91724" width="3.84448" height="3.84448" transform="translate(-81.09243 328.58172) rotate(-89.9966)"/><rect class="cls-12" x="117.9879" y="199.07254" width="3.84448" height="3.84448" transform="translate(-81.09175 320.893) rotate(-89.9966)"/><rect class="cls-12" x="114.14365" y="195.22783" width="3.84448" height="3.84448" transform="translate(-81.09107 313.20427) rotate(-89.9966)"/><rect class="cls-12" x="110.2994" y="191.38313" width="3.84448" height="3.84448" transform="translate(-81.09038 305.51555) rotate(-89.9966)"/><polygon class="cls-12" points="116.422 206.761 125.677 206.762 125.677 203.884 122.514 203.599 114.144 195.228 110.299 193.305 110.299 206.761 114.143 206.761 116.422 206.761"/><rect class="cls-10" x="95.8632" y="357.74632" width="3.84448" height="15.37791" transform="translate(463.22651 267.6715) rotate(90.0034)"/><rect class="cls-11" x="95.86297" y="361.5908" width="3.84448" height="15.37791" transform="translate(467.07075 271.51643) rotate(90.0034)"/><rect class="cls-10" x="95.86274" y="365.43528" width="3.84448" height="15.37791" transform="translate(470.915 275.36136) rotate(90.0034)"/><rect class="cls-11" x="95.86251" y="369.27975" width="3.84448" height="15.37791" transform="translate(474.75925 279.2063) rotate(90.0034)"/><rect class="cls-10" x="95.86228" y="373.12423" width="3.84448" height="15.37791" transform="translate(478.6035 283.05123) rotate(90.0034)"/><rect class="cls-11" x="95.86206" y="376.96871" width="3.84448" height="15.37791" transform="translate(482.44775 286.89616) rotate(90.0034)"/><rect class="cls-10" x="95.86183" y="380.81318" width="3.84448" height="15.37791" transform="translate(486.292 290.74109) rotate(90.0034)"/><rect class="cls-11" x="95.8616" y="384.65766" width="3.84448" height="15.37791" transform="translate(490.13625 294.58603) rotate(90.0034)"/><rect class="cls-10" x="95.86137" y="388.50214" width="3.84448" height="15.37791" transform="translate(493.9805 298.43096) rotate(90.0034)"/><rect class="cls-12" x="101.62809" y="394.26919" width="3.84448" height="3.84448" transform="translate(-292.64724 499.71828) rotate(-89.9966)"/><rect class="cls-12" x="97.78384" y="390.42449" width="3.84448" height="3.84448" transform="translate(-292.64656 492.02955) rotate(-89.9966)"/><rect class="cls-12" x="93.93959" y="386.57978" width="3.84448" height="3.84448" transform="translate(-292.64587 484.34083) rotate(-89.9966)"/><rect class="cls-12" x="90.09534" y="382.73508" width="3.84448" height="3.84448" transform="translate(-292.64519 476.6521) rotate(-89.9966)"/><polygon class="cls-12" points="96.218 398.113 105.472 398.114 105.473 395.236 102.31 394.951 93.94 386.58 90.095 384.657 90.095 398.113 93.939 398.113 96.218 398.113"/><rect class="cls-10" x="88.17364" y="618.17107" width="3.84448" height="15.37791" transform="translate(715.96123 535.80123) rotate(90.0034)"/><rect class="cls-11" x="88.17341" y="622.01554" width="3.84448" height="15.37791" transform="translate(719.80548 539.64617) rotate(90.0034)"/><rect class="cls-10" x="88.17318" y="625.86002" width="3.84448" height="15.37791" transform="translate(723.64973 543.4911) rotate(90.0034)"/><rect class="cls-11" x="88.17295" y="629.7045" width="3.84448" height="15.37791" transform="translate(727.49398 547.33603) rotate(90.0034)"/><rect class="cls-10" x="88.17273" y="633.54897" width="3.84448" height="15.37791" transform="translate(731.33823 551.18096) rotate(90.0034)"/><rect class="cls-11" x="88.1725" y="637.39345" width="3.84448" height="15.37791" transform="translate(735.18248 555.0259) rotate(90.0034)"/><rect class="cls-10" x="88.17227" y="641.23793" width="3.84448" height="15.37791" transform="translate(739.02673 558.87083) rotate(90.0034)"/><rect class="cls-11" x="88.17204" y="645.0824" width="3.84448" height="15.37791" transform="translate(742.87098 562.71576) rotate(90.0034)"/><rect class="cls-10" x="88.17182" y="648.92688" width="3.84448" height="15.37791" transform="translate(746.71523 566.56069) rotate(90.0034)"/><rect class="cls-12" x="93.93853" y="654.69394" width="3.84448" height="3.84448" transform="translate(-560.76109 752.43803) rotate(-89.9966)"/><rect class="cls-12" x="90.09428" y="650.84923" width="3.84448" height="3.84448" transform="translate(-560.7604 744.7493) rotate(-89.9966)"/><rect class="cls-12" x="86.25003" y="647.00453" width="3.84448" height="3.84448" transform="translate(-560.75972 737.06058) rotate(-89.9966)"/><rect class="cls-12" x="82.40578" y="643.15982" width="3.84448" height="3.84448" transform="translate(-560.75904 729.37185) rotate(-89.9966)"/><polygon class="cls-12" points="88.529 658.538 97.783 658.539 97.783 655.661 94.621 655.376 86.25 647.004 82.406 645.082 82.405 658.538 86.249 658.538 88.529 658.538"/><rect class="cls-10" x="211.69746" y="613.54859" width="3.84448" height="15.37791" transform="translate(262.29803 1276.37103) rotate(-165.27331)"/><rect class="cls-11" x="207.97928" y="612.57129" width="3.84448" height="15.37791" transform="matrix(-0.96715, -0.25421, 0.25421, -0.96715, 255.23224, 1273.50334)"/><rect class="cls-10" x="204.2611" y="611.59399" width="3.84448" height="15.37791" transform="translate(248.16646 1270.63566) rotate(-165.27331)"/><rect class="cls-11" x="200.54291" y="610.61669" width="3.84448" height="15.37791" transform="translate(241.10067 1267.76797) rotate(-165.27331)"/><rect class="cls-10" x="196.82473" y="609.6394" width="3.84448" height="15.37791" transform="translate(234.03489 1264.90028) rotate(-165.27331)"/><rect class="cls-11" x="193.10655" y="608.6621" width="3.84448" height="15.37791" transform="translate(226.9691 1262.0326) rotate(-165.27331)"/><rect class="cls-10" x="189.38836" y="607.6848" width="3.84448" height="15.37791" transform="translate(219.90332 1259.16491) rotate(-165.27331)"/><rect class="cls-11" x="185.67018" y="606.7075" width="3.84448" height="15.37791" transform="translate(212.83753 1256.29722) rotate(-165.27331)"/><rect class="cls-10" x="181.952" y="605.7302" width="3.84448" height="15.37791" transform="translate(205.77175 1253.42954) rotate(-165.27331)"/><rect class="cls-12" x="183.41794" y="605.91964" width="3.84448" height="3.84448" transform="translate(160.60709 -27.1471) rotate(14.72669)"/><rect class="cls-12" x="186.15883" y="610.61512" width="3.84448" height="3.84448" transform="matrix(0.96715, 0.25421, -0.25421, 0.96715, 161.89076, -27.68961)"/><rect class="cls-12" x="188.89971" y="615.3106" width="3.84448" height="3.84448" transform="translate(163.17443 -28.23212) rotate(14.72669)"/><rect class="cls-12" x="191.6406" y="620.00609" width="3.84448" height="3.84448" transform="translate(164.4581 -28.77462) rotate(14.72669)"/><polygon class="cls-12" points="181.617 614.444 183.97 605.494 186.753 606.226 186.224 609.357 192.192 619.581 193.074 623.787 180.061 620.366 181.038 616.649 181.617 614.444"/><rect class="cls-10" x="242.2983" y="478.08379" width="3.84448" height="15.37791" transform="matrix(-0.99125, -0.13198, 0.13198, -0.99125, 422.19331, 999.52806)"/><rect class="cls-11" x="238.48745" y="477.57641" width="3.84448" height="15.37791" transform="translate(414.67192 998.01478) rotate(-172.41607)"/><rect class="cls-10" x="234.6766" y="477.06902" width="3.84448" height="15.37791" transform="translate(407.15052 996.50149) rotate(-172.41607)"/><rect class="cls-11" x="230.86576" y="476.56163" width="3.84448" height="15.37791" transform="translate(399.62912 994.9882) rotate(-172.41607)"/><rect class="cls-10" x="227.05491" y="476.05424" width="3.84448" height="15.37791" transform="matrix(-0.99125, -0.13198, 0.13198, -0.99125, 392.10773, 993.47492)"/><rect class="cls-11" x="223.24406" y="475.54686" width="3.84448" height="15.37791" transform="translate(384.58633 991.96163) rotate(-172.41607)"/><rect class="cls-10" x="219.43321" y="475.03947" width="3.84448" height="15.37791" transform="translate(377.06494 990.44835) rotate(-172.41607)"/><rect class="cls-11" x="215.62237" y="474.53208" width="3.84448" height="15.37791" transform="matrix(-0.99125, -0.13198, 0.13198, -0.99125, 369.54354, 988.93506)"/><rect class="cls-10" x="211.81152" y="474.02469" width="3.84448" height="15.37791" transform="translate(362.02214 987.42177) rotate(-172.41607)"/><rect class="cls-12" x="212.5726" y="474.07514" width="3.84448" height="3.84448" transform="translate(64.6976 -24.14493) rotate(7.58393)"/><rect class="cls-12" x="215.87606" y="478.39337" width="3.84448" height="3.84448" transform="translate(65.29641 -24.54314) rotate(7.58393)"/><rect class="cls-12" x="219.17952" y="482.71161" width="3.84448" height="3.84448" transform="translate(65.89522 -24.94135) rotate(7.58393)"/><rect class="cls-12" x="222.48298" y="487.02984" width="3.84448" height="3.84448" transform="matrix(0.99125, 0.13198, -0.13198, 0.99125, 66.49403, -25.33957)"/><polygon class="cls-12" points="211.622 483.011 212.843 473.838 215.696 474.218 215.561 477.391 222.753 486.793 224.152 490.858 210.814 489.081 211.321 485.271 211.622 483.011"/><text class="cls-13" transform="translate(230.48924 681.26569) rotate(90)">FIRST FLOOR</text><rect class="cls-14" x="166.57066" y="531.76726" width="13.41131" height="20.76315" transform="translate(234.19298 1108.04565) rotate(-168.4196)"/><text class="cls-5" transform="translate(170.06326 535.46801) rotate(101.58029)">G6</text><rect class="cls-14" x="162.44898" y="554.87263" width="13.41131" height="14.79062" transform="translate(116.28662 -22.50851) rotate(11.57766)"/><text class="cls-15" transform="translate(166.10887 556.78672) rotate(101.57793)">S3</text><rect class="cls-14" x="170.69259" y="514.63321" width="13.41131" height="14.79062" transform="translate(108.37846 -24.9817) rotate(11.57766)"/><text class="cls-15" transform="translate(174.35815 516.52062) rotate(101.57793)">S4</text><rect class="cls-14" x="155.20206" y="465.60667" width="15.94784" height="26.03056" transform="translate(100.06739 -23.09777) rotate(11.65645)"/><rect class="cls-14" x="149.33208" y="494.06065" width="15.94784" height="26.03056" transform="translate(105.69526 -21.32497) rotate(11.65645)"/><text class="cls-5" transform="matrix(-0.20204, 0.97938, -0.97938, -0.20204, 159.87372, 472.60507)">P8</text><text class="cls-5" transform="matrix(-0.20204, 0.97938, -0.97938, -0.20204, 153.87219, 501.69964)">P7</text><rect class="cls-14" x="133.01231" y="499.92709" width="13.41131" height="14.79062" transform="translate(105.38233 -17.76635) rotate(11.65645)"/><text class="cls-15" transform="matrix(-0.20204, 0.97938, -0.97938, -0.20204, 136.69594, 501.90849)">S5</text><rect class="cls-14" x="136.71418" y="481.9828" width="13.41131" height="14.79062" transform="translate(101.83316 -18.88435) rotate(11.65645)"/><text class="cls-15" transform="matrix(-0.20204, 0.97938, -0.97938, -0.20204, 140.3962, 483.97168)">S6</text><rect class="cls-14" x="140.41604" y="464.03851" width="13.41131" height="14.79062" transform="translate(98.28399 -20.00236) rotate(11.65645)"/><text class="cls-15" transform="matrix(-0.20204, 0.97938, -0.97938, -0.20204, 143.97234, 466.63646)">S7</text><rect class="cls-14" x="181.7188" y="452.0171" width="13.41131" height="14.79062" transform="translate(23.61239 -8.98968) rotate(2.91567)"/><text class="cls-15" transform="translate(184.53245 454.52589) rotate(92.91588)">S8</text><rect class="cls-14" x="182.65078" y="433.71866" width="13.41131" height="14.79062" transform="translate(22.68283 -9.06078) rotate(2.91567)"/><text class="cls-15" transform="translate(185.46979 436.12339) rotate(92.91588)">S9</text><rect class="cls-14" x="86.67118" y="512.1513" width="32.76843" height="28.84226" transform="translate(639.60245 530.59657) rotate(101.5031)"/><text class="cls-5" transform="matrix(-0.19942, 0.97991, -0.97991, -0.19942, 99.93098, 519.92298)">U3</text><text class="cls-5" transform="translate(169.65098 654.00577) rotate(17.72686)">ROOM 4</text><text class="cls-5" transform="matrix(0.95278, 0.30366, -0.30366, 0.95278, 152.92291, 706.34411)">ROOM 3</text><text class="cls-5" transform="matrix(0.9796, 0.20097, -0.20097, 0.9796, 81.32656, 473.40022)">ROOM 8</text><rect class="cls-9" x="191.58995" y="493.46966" width="51.79197" height="60.01318" transform="translate(774.01075 415.73746) rotate(101.60469)"/><rect class="cls-9" x="180.533" y="547.31254" width="51.79197" height="60.01318" transform="translate(813.47188 491.24221) rotate(101.60469)"/><text class="cls-5" transform="matrix(0.97957, 0.20113, -0.20113, 0.97957, 201.44747, 523.35047)">ROOM 6</text><text class="cls-5" transform="translate(190.44283 577.18678) rotate(11.55332)">ROOM 5</text><rect class="cls-9" x="204.02976" y="413.15634" width="51.79197" height="60.01318" transform="translate(684.14203 235.92683) rotate(92.89676)"/><text class="cls-5" transform="matrix(0.99872, 0.0505, -0.0505, 0.99872, 214.88184, 445.43563)">ROOM 7</text><rect class="cls-9" x="115.98292" y="752.07866" width="51.79197" height="60.01318" transform="translate(924.49836 920.98721) rotate(110.34651)"/><text class="cls-5" transform="translate(126.17144 779.55474) rotate(20.29532)">ROOM 2</text><rect class="cls-14" x="102.04074" y="603.45481" width="15.94784" height="26.03056"/><text class="cls-5" transform="translate(105.55467 611.13141) rotate(90)">P6</text><rect class="cls-14" x="102.04074" y="632.50796" width="15.94784" height="26.03056"/><text class="cls-5" transform="translate(105.55467 640.17731) rotate(90)">P5</text><rect class="cls-4" x="79.66787" y="561.50317" width="49.99228" height="26.64018" transform="translate(679.50603 470.2623) rotate(90.01027)"/><text class="cls-16" transform="translate(101.42296 559.14377) rotate(90.01031)">C<tspan class="cls-17" x="4.5166" y="0">A</tspan><tspan x="8.62207" y="0">TERING</tspan></text><polygon class="cls-18" points="164.272 324.782 160.354 322.52 160.354 327.044 164.272 324.782"/><polygon class="cls-18" points="164.272 331.907 160.354 329.645 160.354 334.169 164.272 331.907"/><polygon class="cls-18" points="164.272 339.033 160.354 336.77 160.354 341.295 164.272 339.033"/><path class="cls-9" d="M189.36382,37.71706a58.62112,58.62112,0,0,0-54.95569,38.223l-.098.2641c-.01568.04511-.03112.09027-.04663.13544l-.11108.319c-11.91748,33.93872-21.115,64.46954-27.70587,88.14019H247.965V96.31826A58.66757,58.66757,0,0,0,189.36382,37.71706Z"/><text class="cls-5" transform="translate(168.1793 105.84186)">ROOM 10</text><g class="cls-19"><line class="cls-20" x1="272.4172" y1="200.00185" x2="133.70642" y2="338.71263"/><line class="cls-20" x1="256.31467" y1="200.00185" x2="117.60388" y2="338.71263"/><line class="cls-20" x1="240.21213" y1="200.00185" x2="101.50134" y2="338.71263"/><line class="cls-20" x1="224.10959" y1="200.00185" x2="85.39881" y2="338.71263"/><line class="cls-20" x1="208.00705" y1="200.00185" x2="69.29627" y2="338.71263"/><line class="cls-20" x1="191.90452" y1="200.00185" x2="53.19373" y2="338.71263"/><line class="cls-20" x1="175.80198" y1="200.00185" x2="37.09119" y2="338.71263"/><line class="cls-20" x1="159.69944" y1="200.00185" x2="20.98866" y2="338.71263"/><line class="cls-20" x1="143.5969" y1="200.00185" x2="4.88612" y2="338.71263"/><line class="cls-20" x1="127.49437" y1="200.00185" x2="-11.21642" y2="338.71263"/><line class="cls-20" x1="111.39183" y1="200.00185" x2="-27.31895" y2="338.71263"/><line class="cls-20" x1="95.28929" y1="200.00185" x2="-43.42149" y2="338.71263"/><line class="cls-20" x1="79.18676" y1="200.00185" x2="-59.52403" y2="338.71263"/></g><rect class="cls-3" x="86.94218" y="252.55947" width="56.46239" height="21.00662" transform="translate(378.23614 147.88941) rotate(90)"/><text class="cls-5" transform="translate(110.29881 239.94403) rotate(90)">NO <tspan class="cls-21" x="14.02539" y="0">A</tspan><tspan x="19.55176" y="0">CCESS</tspan></text><path class="cls-22" d="M130.80609,898.11829l28.81055-77.56989.002.00073,3.75043,1.39081,1.39075-3.75043L182.7677,769.629l1.39081-3.75043-3.664-1.35876,7.46991-18.80231.26239.08386,3.81,1.218,1.21808-3.81,15.77137-49.33221.7489-2.34265.21777-.68116,15.77136-49.33227,1.218-3.81-3.81-1.21808-6.81573-2.17895,6.07416-23.189,7.37768,1.51508,3.91821.80462.80463-3.91827,10.4184-50.73322.80462-3.91827,10.25232-49.92468.80463-3.91822-3.91821-.80462-4.43091-.90991,3.32-25.11444,6.60108.334,3.99487.20215.20215-3.99487,2.61743-51.72583.20209-3.99488-3.99487-.20215-9.7074-.49121v-41.1076h10.67883V96.31824H251.965A62.60816,62.60816,0,0,0,130.6579,74.54877l-.0044-.0008-.03686.10547c-.08081.21906-.15344.44184-.23194.662-27.66406,78.78192-40.56835,138.5473-40.56835,138.5473H62.21625v98.4h14.4V435.35205l-2.78393-.56659-3.91968-.79773-.79773,3.91968-11.68933,57.436-.79773,3.91962,3.91962.79773,16.06878,3.27032v25.44111l-13.48938-2.74537L51.924,581.07245,77.04,586.184V777.99078l-7.177-.06646L67.85,835.44269l-23.12415-7.70526L29.60028,866.731l12.6001,55.60791,36.96,13.944Z"/><rect class="cls-9" x="149.52669" y="232.46659" width="127.43187" height="90.22428" transform="translate(490.82136 64.3361) rotate(90)"/><text class="cls-5" transform="translate(194.64961 274.48395)">ROOM 9<tspan x="-0.27051" y="12.29248">(UPPER)</tspan></text></svg>
